<svg version="1.0" xmlns="http://www.w3.org/2000/svg"
 width="500px" height="64px" viewBox="0 0 800.000000 64.000000"
 preserveAspectRatio="xMidYMid meet">

<g transform="translate(0.000000,64.000000) scale(0.100000,-0.100000)"
fill="var(--primary)" stroke="none">
<path d="M2815 632 c-62 -6 -75 -20 -75 -83 0 -32 -4 -60 -8 -63 -15 -9 -63
63 -60 91 4 31 -21 44 -29 15 -5 -20 -5 -20 -51 1 -68 31 -219 31 -281 0 -34
-17 -49 -20 -63 -12 -14 7 -68 7 -174 0 -208 -15 -383 -6 -449 22 -66 28 -194
30 -244 3 -24 -13 -36 -15 -44 -7 -16 16 -54 13 -117 -9 -53 -18 -54 -18 -68
1 -11 16 -25 19 -80 18 -37 0 -83 -5 -102 -12 -31 -11 -36 -17 -40 -52 l-5
-40 -23 32 c-30 42 -96 73 -158 73 -64 0 -135 -24 -164 -55 l-23 -24 -17 21
c-23 29 -82 18 -120 -24 -19 -21 -30 -26 -35 -18 -13 22 -88 48 -156 55 l-67
7 -11 -50 c-9 -46 -23 -179 -35 -338 -2 -34 0 -67 4 -74 5 -9 29 -11 80 -8 84
4 100 18 100 84 0 62 15 61 41 -2 l22 -56 51 5 c28 3 77 14 108 24 l57 20 42
-29 c36 -24 52 -28 108 -28 71 1 131 18 162 46 18 17 19 16 19 -23 0 -59 13
-65 129 -61 77 2 103 7 118 20 11 10 35 18 54 18 19 0 52 5 74 10 29 7 44 6
55 -4 27 -24 90 -38 166 -38 60 0 85 5 126 25 50 25 51 25 82 6 22 -13 50 -19
94 -19 59 0 67 3 96 33 18 17 35 38 37 44 3 9 22 6 68 -13 84 -34 158 -31 199
9 27 26 28 26 40 7 35 -56 203 -100 308 -81 61 12 137 50 153 79 8 13 10 7 11
-29 0 -56 14 -70 74 -76 104 -12 211 42 241 121 22 57 14 90 -31 137 l-35 36
26 17 c38 25 65 75 65 121 0 48 -19 79 -63 102 -33 17 -129 30 -182 25z
m-1195 -65 c70 -34 95 -88 95 -202 0 -79 -4 -97 -29 -149 -23 -47 -36 -62 -70
-77 -47 -21 -157 -25 -216 -8 -35 11 -37 13 -37 53 0 31 -12 64 -46 127 l-47
86 34 74 c37 79 61 101 132 118 54 13 130 4 184 -22z m1331 23 c52 -15 79 -44
79 -88 0 -31 -8 -44 -56 -89 -31 -30 -55 -55 -53 -56 86 -57 106 -90 89 -143
-24 -72 -136 -126 -225 -110 l-38 7 7 127 c4 70 9 180 13 245 l6 117 71 0 c39
0 87 -5 107 -10z m-366 -29 c22 -10 57 -37 78 -61 57 -62 86 -140 53 -140 -26
0 -175 -50 -182 -61 -13 -22 9 -21 93 5 49 14 91 26 96 26 21 0 -7 -91 -40
-131 -42 -49 -95 -69 -188 -69 -95 0 -131 9 -201 52 -41 24 -51 35 -45 47 15
29 22 91 23 197 0 103 0 104 29 124 58 42 201 48 284 11z m-1778 8 c64 -24
120 -105 125 -180 3 -47 4 -47 -115 -72 -32 -7 -59 -17 -60 -22 -4 -18 46 -17
110 0 35 10 66 15 69 12 12 -11 -11 -62 -45 -97 -60 -63 -185 -82 -251 -36
-30 20 -34 28 -32 62 1 21 -9 86 -22 144 -26 113 -24 126 21 158 57 40 142 53
200 31z m318 -25 c-7 -39 11 -54 31 -26 22 31 154 74 154 50 0 -7 -17 -48 -37
-92 l-38 -79 48 -88 c26 -48 47 -99 47 -113 0 -21 -6 -26 -50 -35 -100 -22
-116 -15 -127 53 -10 58 -33 75 -33 24 1 -18 4 -52 9 -75 8 -40 7 -41 -22 -47
-16 -3 -60 -6 -98 -6 -78 0 -74 -6 -57 90 7 36 12 132 13 214 l0 150 25 7 c14
4 51 7 83 6 l58 -1 -6 -32z m1110 -134 c-1 -162 -11 -197 -65 -225 -41 -21
-86 -18 -155 10 -77 32 -90 31 -105 -5 -7 -17 -22 -37 -34 -45 -47 -33 -187
-6 -170 33 36 84 46 131 42 207 -3 56 -11 93 -26 123 l-22 42 53 0 54 0 5 -71
c3 -39 11 -76 17 -82 19 -19 41 20 41 72 0 25 4 51 8 57 4 6 46 14 94 17 l87
6 3 -62 c2 -49 6 -62 21 -65 15 -3 17 5 17 62 l0 65 38 4 c20 2 51 4 67 3 l30
-1 0 -145z m-1929 109 c17 -5 44 -23 59 -39 16 -17 32 -30 36 -30 4 0 17 16
29 36 27 42 69 63 85 41 19 -27 70 -288 58 -305 -10 -18 -89 -48 -151 -58
l-38 -6 -27 69 c-14 37 -29 78 -32 91 -4 14 -13 22 -23 20 -14 -3 -19 -22 -27
-96 -11 -104 -17 -112 -84 -112 l-44 0 7 127 c6 121 23 259 33 276 5 8 71 0
119 -14z"/>
<path d="M1513 388 c-24 -12 -38 -41 -28 -58 8 -14 87 -1 101 16 6 8 16 14 23
14 17 0 13 27 -5 34 -23 9 -66 6 -91 -6z"/>
<path d="M2861 503 c-21 -14 -22 -17 -8 -28 21 -15 77 -7 84 12 12 32 -39 43
-76 16z"/>
<path d="M2850 232 c-25 -21 -22 -52 5 -52 30 0 76 31 73 48 -5 24 -50 27 -78
4z"/>
<path d="M2421 448 c1 -13 -1 -30 -5 -39 -10 -22 18 -43 48 -35 32 8 41 39 20
71 -22 33 -64 35 -63 3z"/>
<path d="M715 467 c-29 -9 -40 -18 -40 -32 0 -17 6 -20 37 -19 52 2 100 23 96
43 -4 20 -41 23 -93 8z"/>
<path d="M7130 624 c-221 -36 -229 -37 -284 -26 -64 13 -156 1 -202 -27 -29
-17 -29 -17 -56 11 -20 21 -35 28 -54 26 -28 -3 -35 -11 -57 -68 l-14 -35 -21
42 c-18 35 -27 42 -62 48 -47 8 -113 -1 -153 -22 -15 -7 -32 -11 -37 -8 -6 4
-46 3 -89 0 l-78 -7 -6 -103 c-2 -57 -8 -109 -12 -115 -16 -26 -25 17 -25 118
l0 102 -94 0 -93 0 -7 -46 c-3 -26 -6 -61 -7 -78 0 -25 -3 -20 -15 24 -8 30
-22 65 -30 78 -34 51 -107 52 -213 2 l-63 -30 -19 24 c-22 28 -107 71 -161 81
-46 9 -102 -16 -125 -56 -10 -16 -20 -29 -23 -29 -3 0 -13 14 -22 30 -39 68
-131 72 -203 9 l-34 -31 -35 27 c-20 15 -53 29 -76 32 -82 11 -243 -40 -272
-86 -10 -17 -14 -15 -42 22 -17 22 -49 49 -70 60 -80 41 -257 16 -312 -44 -20
-22 -35 -25 -32 -6 2 6 -18 22 -43 35 -40 20 -63 23 -150 23 -206 1 -287 -63
-297 -232 -4 -70 -2 -81 24 -128 58 -108 147 -162 275 -169 93 -5 128 6 180
55 l27 24 47 -33 c44 -31 52 -33 128 -33 68 1 92 5 137 27 62 30 76 41 108 82
l22 29 0 -34 c0 -19 4 -39 8 -46 4 -7 48 -22 97 -34 72 -17 106 -20 170 -14
115 9 253 32 305 50 27 9 46 12 50 6 3 -6 30 -21 60 -35 144 -65 373 -58 545
19 l53 23 24 -25 c37 -41 95 -63 170 -63 57 0 76 5 132 34 l66 35 0 -28 c0
-46 18 -58 95 -64 39 -2 76 -3 83 0 8 3 12 33 12 100 0 53 3 93 8 89 4 -4 23
-44 43 -89 l35 -82 83 0 c111 0 111 0 104 163 l-6 127 49 18 c65 23 125 22
155 -2 22 -17 24 -30 30 -132 4 -62 5 -119 2 -126 -3 -7 -17 -16 -32 -21 -25
-7 -116 -7 -155 0 -10 2 -21 -2 -23 -9 -7 -19 65 -36 127 -30 72 8 107 23 114
51 8 30 -5 247 -16 269 -8 15 -2 17 70 17 107 0 108 -2 94 -133 -7 -56 -15
-112 -18 -124 -10 -35 32 -46 150 -39 131 7 135 11 113 108 -39 172 -38 178
48 178 42 0 184 -45 203 -65 2 -2 -21 -40 -53 -84 -31 -45 -55 -89 -53 -99 7
-36 210 -57 268 -27 76 39 300 470 264 505 -5 5 -40 11 -77 15 l-68 7 -70 -69
-70 -70 -14 26 c-19 37 -85 97 -114 104 -37 9 -116 -11 -144 -37 -24 -22 -25
-22 -47 -4 -36 29 -165 53 -230 42z m799 -40 c17 -16 -119 -299 -187 -389 -52
-69 -72 -77 -162 -71 -131 10 -128 5 -58 106 52 75 59 91 48 104 -7 9 -17 16
-22 16 -5 0 -43 14 -84 31 l-74 31 0 57 c0 50 4 61 30 86 23 22 41 29 82 33
63 5 90 -12 135 -83 15 -25 34 -45 42 -45 8 0 45 32 82 71 l67 72 48 -8 c27
-4 51 -9 53 -11z m-2591 -21 c18 -8 53 -32 77 -54 l43 -40 54 30 c29 16 75 35
102 41 92 20 119 -24 137 -222 8 -87 8 -122 0 -132 -12 -14 -129 -62 -135 -55
-2 2 -10 40 -18 83 -8 48 -19 81 -27 84 -14 5 -13 -43 5 -139 6 -35 4 -37 -22
-43 -130 -25 -265 -14 -366 31 -55 24 -57 26 -43 46 18 25 19 80 4 199 -10 88
-10 88 18 130 46 68 84 77 171 41z m1990 4 c31 -17 32 -19 32 -87 l0 -70 -43
0 c-23 0 -53 -7 -66 -16 -22 -16 -23 -22 -17 -76 3 -33 13 -87 21 -120 9 -33
15 -62 13 -64 -9 -8 -184 -14 -196 -6 -9 6 -10 30 -1 114 18 161 8 178 -107
181 l-64 2 0 66 0 65 88 16 c117 22 295 19 340 -5z m-2964 -2 c44 -21 73 -63
91 -132 29 -111 16 -202 -36 -250 -58 -53 -182 -84 -254 -64 -44 12 -100 56
-91 70 8 12 -13 112 -26 128 -15 18 -15 106 0 110 6 3 12 20 12 39 0 40 24 68
83 95 53 24 175 26 221 4z m706 -7 c32 -35 41 -77 54 -273 5 -80 -3 -91 -84
-116 -39 -12 -73 -19 -75 -17 -2 2 -6 37 -9 77 -2 41 -9 78 -15 84 -17 17 -24
-19 -18 -98 l5 -72 -51 -7 c-29 -3 -64 -6 -79 -6 l-28 0 0 89 c0 50 -4 92 -9
96 -20 12 -34 -38 -28 -101 8 -87 -1 -97 -78 -84 -33 6 -76 14 -95 18 l-35 8
-7 151 c-3 84 -9 156 -12 161 -7 11 29 44 69 65 44 22 149 40 188 33 18 -3 46
-20 62 -36 34 -36 46 -37 71 -9 53 60 136 78 174 37z m1498 -3 c21 -26 30
-120 34 -343 2 -120 0 -123 -81 -120 l-54 3 -39 90 c-65 152 -98 148 -98 -12
l0 -94 -62 3 -63 3 -7 40 c-5 28 -1 54 10 85 18 48 23 186 10 272 -7 45 -6 48
20 62 38 19 93 27 130 20 23 -5 38 -17 56 -49 41 -68 62 -66 80 10 8 32 23 55
36 55 5 0 17 -11 28 -25z m-2616 5 c31 -9 41 -19 58 -58 12 -26 17 -48 12 -50
-43 -14 -99 -52 -110 -74 -25 -52 16 -98 88 -98 31 0 40 -14 40 -64 0 -36 -32
-72 -89 -101 -48 -24 -169 -17 -228 13 -91 47 -153 136 -153 219 0 104 45 179
123 207 49 17 205 21 259 6z m2902 4 c12 -5 16 -20 16 -63 -1 -66 -18 -105
-40 -91 -23 15 -117 12 -157 -5 -20 -8 -38 -14 -40 -12 -1 2 -6 30 -9 63 -7
67 -1 77 63 100 39 14 140 19 167 8z m-673 -61 c14 -42 18 -201 6 -255 -24
-116 -195 -185 -314 -127 -73 35 -77 49 -69 209 3 76 9 152 12 169 6 31 7 31
70 31 l64 0 0 -89 c0 -109 10 -141 44 -141 36 0 48 31 54 137 l5 92 36 4 c81
8 79 9 92 -30z m-2175 -190 c-2 -3 -18 -2 -35 2 -26 5 -31 11 -31 35 0 22 7
33 28 44 l27 14 8 -45 c4 -25 6 -48 3 -50z"/>
<path d="M5374 289 c-3 -6 -9 -49 -12 -95 -4 -73 -3 -84 12 -84 12 0 16 10 16
43 0 23 3 66 6 95 5 34 3 52 -4 52 -6 0 -14 -5 -18 -11z"/>
<path d="M4257 373 c-11 -10 -8 -41 4 -49 11 -6 48 31 49 49 0 9 -44 9 -53 0z"/>
</g>
</svg>